<svg xmlns="http://www.w3.org/2000/svg" xmlns:xlink="http://www.w3.org/1999/xlink" width="500" zoomAndPan="magnify" viewBox="0 0 375 374.999991" height="500" preserveAspectRatio="xMidYMid meet" version="1.0"><defs><g/><clipPath id="id1"><path d="M 63 192 L 90 192 L 90 208.902344 L 63 208.902344 Z M 63 192 " clip-rule="nonzero"/></clipPath><clipPath id="id2"><path d="M 63 166.152344 L 89 166.152344 L 89 179 L 63 179 Z M 63 166.152344 " clip-rule="nonzero"/></clipPath><clipPath id="id3"><path d="M 55.234375 177 L 76 177 L 76 195 L 55.234375 195 Z M 55.234375 177 " clip-rule="nonzero"/></clipPath><clipPath id="id4"><path d="M 75 166.152344 L 97.984375 166.152344 L 97.984375 187 L 75 187 Z M 75 166.152344 " clip-rule="nonzero"/></clipPath></defs><path fill="#1956b4" d="M 88.632812 184.855469 L 89.96875 184.855469 L 89.96875 186.859375 L 88.632812 186.859375 Z M 88.632812 184.855469 " fill-opacity="1" fill-rule="nonzero"/><g clip-path="url(#id1)"><path fill="#1956b4" d="M 86.628906 208.902344 L 66.589844 208.902344 C 66.148438 208.902344 65.722656 208.816406 65.3125 208.648438 C 64.902344 208.476562 64.542969 208.234375 64.230469 207.921875 C 63.917969 207.609375 63.675781 207.25 63.503906 206.839844 C 63.335938 206.429688 63.25 206.003906 63.25 205.5625 L 63.25 192.871094 L 64.585938 192.871094 L 64.585938 205.5625 C 64.585938 205.828125 64.636719 206.085938 64.738281 206.328125 C 64.839844 206.574219 64.984375 206.792969 65.171875 206.980469 C 65.359375 207.167969 65.578125 207.3125 65.824219 207.414062 C 66.066406 207.515625 66.324219 207.566406 66.589844 207.566406 L 86.628906 207.566406 C 86.894531 207.566406 87.148438 207.515625 87.394531 207.414062 C 87.640625 207.3125 87.859375 207.167969 88.046875 206.980469 C 88.234375 206.792969 88.378906 206.574219 88.480469 206.328125 C 88.582031 206.085938 88.632812 205.828125 88.632812 205.5625 L 88.632812 201.554688 L 89.96875 201.554688 L 89.96875 205.5625 C 89.96875 206.003906 89.882812 206.429688 89.714844 206.839844 C 89.542969 207.25 89.300781 207.609375 88.988281 207.921875 C 88.675781 208.234375 88.316406 208.476562 87.90625 208.648438 C 87.496094 208.816406 87.070312 208.902344 86.628906 208.902344 Z M 86.628906 208.902344 " fill-opacity="1" fill-rule="nonzero"/></g><g clip-path="url(#id2)"><path fill="#1956b4" d="M 64.585938 178.175781 L 63.25 178.175781 L 63.25 169.492188 C 63.25 169.050781 63.335938 168.625 63.503906 168.214844 C 63.675781 167.804688 63.917969 167.445312 64.230469 167.132812 C 64.542969 166.820312 64.902344 166.578125 65.3125 166.40625 C 65.722656 166.238281 66.148438 166.152344 66.589844 166.152344 L 86.628906 166.152344 C 87.46875 166.152344 88.207031 166.429688 88.835938 166.988281 L 87.953125 167.988281 C 87.574219 167.65625 87.132812 167.488281 86.628906 167.488281 L 66.589844 167.488281 C 66.324219 167.488281 66.066406 167.539062 65.824219 167.640625 C 65.578125 167.742188 65.359375 167.886719 65.171875 168.074219 C 64.984375 168.261719 64.839844 168.480469 64.738281 168.726562 C 64.636719 168.972656 64.585938 169.226562 64.585938 169.492188 Z M 64.585938 178.175781 " fill-opacity="1" fill-rule="nonzero"/></g><path fill="#1956b4" d="M 77.945312 171.496094 L 74.078125 171.496094 C 73.402344 171.496094 72.785156 171.308594 72.226562 170.933594 L 71.566406 170.496094 C 71.230469 170.269531 70.859375 170.160156 70.457031 170.160156 L 63.917969 170.160156 L 63.917969 168.824219 L 70.457031 168.824219 C 71.132812 168.824219 71.75 169.011719 72.308594 169.386719 L 72.964844 169.824219 C 73.304688 170.046875 73.675781 170.160156 74.078125 170.15625 L 77.945312 170.15625 Z M 77.945312 171.496094 " fill-opacity="1" fill-rule="nonzero"/><path fill="#1956b4" d="M 89.300781 206.230469 L 82.761719 206.230469 C 82.085938 206.230469 81.46875 206.042969 80.910156 205.667969 L 80.25 205.230469 C 79.914062 205.007812 79.542969 204.894531 79.140625 204.898438 L 74.078125 204.898438 C 73.675781 204.894531 73.304688 205.007812 72.964844 205.230469 L 72.308594 205.667969 C 71.75 206.042969 71.132812 206.230469 70.457031 206.230469 L 63.917969 206.230469 C 63.734375 206.230469 63.574219 206.164062 63.445312 206.035156 C 63.316406 205.90625 63.25 205.746094 63.25 205.5625 C 63.25 205.378906 63.316406 205.222656 63.445312 205.089844 C 63.574219 204.960938 63.734375 204.894531 63.917969 204.894531 L 70.457031 204.894531 C 70.859375 204.894531 71.230469 204.785156 71.566406 204.5625 L 72.226562 204.121094 C 72.785156 203.746094 73.402344 203.558594 74.078125 203.558594 L 79.140625 203.558594 C 79.816406 203.558594 80.433594 203.746094 80.992188 204.121094 L 81.648438 204.558594 C 81.988281 204.78125 82.359375 204.894531 82.761719 204.890625 L 89.300781 204.890625 C 89.484375 204.890625 89.640625 204.957031 89.773438 205.085938 C 89.902344 205.21875 89.96875 205.375 89.96875 205.558594 C 89.96875 205.746094 89.902344 205.902344 89.773438 206.03125 C 89.640625 206.164062 89.484375 206.226562 89.300781 206.226562 Z M 89.300781 206.230469 " fill-opacity="1" fill-rule="nonzero"/><path fill="#1956b4" d="M 80.617188 203.558594 C 80.527344 203.558594 80.441406 203.542969 80.359375 203.507812 C 80.085938 203.394531 79.949219 203.1875 79.949219 202.890625 L 79.949219 200.183594 C 78.9375 199.519531 78.136719 198.660156 77.546875 197.605469 C 76.957031 196.546875 76.644531 195.417969 76.609375 194.207031 C 76.609375 189.789062 81.105469 186.191406 86.628906 186.191406 C 92.152344 186.191406 96.648438 189.789062 96.648438 194.207031 C 96.648438 198.628906 92.152344 202.222656 86.628906 202.222656 C 85.332031 202.226562 84.066406 202.023438 82.832031 201.621094 L 81.089844 203.363281 C 80.957031 203.492188 80.800781 203.558594 80.617188 203.558594 Z M 86.628906 187.527344 C 81.839844 187.527344 77.945312 190.523438 77.945312 194.207031 C 77.988281 195.253906 78.28125 196.230469 78.820312 197.128906 C 79.359375 198.027344 80.082031 198.742188 80.984375 199.273438 C 81.183594 199.40625 81.285156 199.59375 81.285156 199.832031 L 81.285156 201.277344 L 82.183594 200.378906 C 82.386719 200.179688 82.621094 200.125 82.886719 200.226562 C 84.09375 200.667969 85.34375 200.890625 86.628906 200.886719 C 91.417969 200.886719 95.3125 197.890625 95.3125 194.207031 C 95.3125 190.523438 91.417969 187.527344 86.628906 187.527344 Z M 86.628906 187.527344 " fill-opacity="1" fill-rule="nonzero"/><path fill="#1956b4" d="M 91.304688 198.214844 L 90.636719 198.214844 C 90.453125 198.214844 90.292969 198.148438 90.164062 198.019531 C 90.035156 197.890625 89.96875 197.730469 89.96875 197.546875 C 89.96875 197.363281 90.035156 197.207031 90.164062 197.074219 C 90.292969 196.945312 90.453125 196.878906 90.636719 196.878906 L 91.304688 196.878906 C 91.488281 196.878906 91.644531 196.945312 91.777344 197.074219 C 91.90625 197.207031 91.972656 197.363281 91.972656 197.546875 C 91.972656 197.730469 91.90625 197.890625 91.777344 198.019531 C 91.644531 198.148438 91.488281 198.214844 91.304688 198.214844 Z M 91.304688 198.214844 " fill-opacity="1" fill-rule="nonzero"/><path fill="#1956b4" d="M 88.632812 198.214844 L 87.964844 198.214844 C 87.78125 198.214844 87.621094 198.148438 87.492188 198.019531 C 87.363281 197.890625 87.296875 197.730469 87.296875 197.546875 C 87.296875 197.363281 87.363281 197.207031 87.492188 197.074219 C 87.621094 196.945312 87.78125 196.878906 87.964844 196.878906 L 88.632812 196.878906 C 88.816406 196.878906 88.972656 196.945312 89.105469 197.074219 C 89.234375 197.207031 89.300781 197.363281 89.300781 197.546875 C 89.300781 197.730469 89.234375 197.890625 89.105469 198.019531 C 88.972656 198.148438 88.816406 198.214844 88.632812 198.214844 Z M 88.632812 198.214844 " fill-opacity="1" fill-rule="nonzero"/><g clip-path="url(#id3)"><path fill="#1956b4" d="M 71.265625 194.875 C 71.082031 194.875 70.921875 194.808594 70.792969 194.679688 L 69.050781 192.9375 C 67.816406 193.339844 66.550781 193.542969 65.253906 193.539062 C 59.730469 193.539062 55.234375 189.945312 55.234375 185.523438 C 55.234375 181.105469 59.730469 177.507812 65.253906 177.507812 C 70.777344 177.507812 75.273438 181.105469 75.273438 185.523438 C 75.238281 186.734375 74.925781 187.863281 74.335938 188.921875 C 73.746094 189.976562 72.945312 190.835938 71.933594 191.5 L 71.933594 194.207031 C 71.933594 194.503906 71.796875 194.710938 71.519531 194.824219 C 71.4375 194.859375 71.355469 194.875 71.265625 194.875 Z M 69.226562 191.5 C 69.410156 191.5 69.566406 191.566406 69.699219 191.695312 L 70.597656 192.59375 L 70.597656 191.148438 C 70.597656 190.910156 70.695312 190.722656 70.898438 190.589844 C 71.800781 190.058594 72.523438 189.34375 73.0625 188.445312 C 73.601562 187.546875 73.894531 186.570312 73.9375 185.523438 C 73.9375 181.839844 70.042969 178.84375 65.253906 178.84375 C 60.464844 178.84375 56.570312 181.839844 56.570312 185.523438 C 56.570312 189.207031 60.464844 192.203125 65.253906 192.203125 C 66.539062 192.207031 67.785156 191.984375 68.996094 191.542969 C 69.070312 191.515625 69.144531 191.5 69.226562 191.5 Z M 69.226562 191.5 " fill-opacity="1" fill-rule="nonzero"/></g><path fill="#1956b4" d="M 61.246094 189.53125 L 60.578125 189.53125 C 60.394531 189.53125 60.234375 189.464844 60.105469 189.335938 C 59.976562 189.207031 59.910156 189.046875 59.910156 188.863281 C 59.910156 188.679688 59.976562 188.523438 60.105469 188.390625 C 60.234375 188.261719 60.394531 188.195312 60.578125 188.195312 L 61.246094 188.195312 C 61.429688 188.195312 61.585938 188.261719 61.71875 188.390625 C 61.847656 188.523438 61.914062 188.679688 61.914062 188.863281 C 61.914062 189.046875 61.847656 189.207031 61.71875 189.335938 C 61.585938 189.464844 61.429688 189.53125 61.246094 189.53125 Z M 61.246094 189.53125 " fill-opacity="1" fill-rule="nonzero"/><path fill="#1956b4" d="M 63.917969 189.53125 L 63.25 189.53125 C 63.066406 189.53125 62.90625 189.464844 62.777344 189.335938 C 62.648438 189.207031 62.582031 189.046875 62.582031 188.863281 C 62.582031 188.679688 62.648438 188.523438 62.777344 188.390625 C 62.90625 188.261719 63.066406 188.195312 63.25 188.195312 L 63.917969 188.195312 C 64.101562 188.195312 64.257812 188.261719 64.390625 188.390625 C 64.519531 188.523438 64.585938 188.679688 64.585938 188.863281 C 64.585938 189.046875 64.519531 189.207031 64.390625 189.335938 C 64.257812 189.464844 64.101562 189.53125 63.917969 189.53125 Z M 63.917969 189.53125 " fill-opacity="1" fill-rule="nonzero"/><g clip-path="url(#id4)"><path fill="#1956b4" d="M 79.949219 186.859375 C 79.859375 186.859375 79.773438 186.84375 79.691406 186.808594 C 79.417969 186.695312 79.28125 186.488281 79.28125 186.191406 L 79.28125 183.300781 C 78.679688 182.917969 78.136719 182.464844 77.644531 181.945312 C 77.15625 181.429688 76.738281 180.859375 76.386719 180.238281 C 76.039062 179.613281 75.769531 178.960938 75.582031 178.273438 C 75.390625 177.585938 75.289062 176.886719 75.273438 176.171875 C 75.273438 171.015625 80.367188 166.820312 86.628906 166.820312 C 92.890625 166.820312 97.984375 171.015625 97.984375 176.171875 C 97.984375 181.328125 92.890625 185.523438 86.628906 185.523438 C 85.136719 185.527344 83.683594 185.292969 82.273438 184.8125 L 80.421875 186.664062 C 80.289062 186.792969 80.132812 186.859375 79.949219 186.859375 Z M 86.628906 168.15625 C 81.105469 168.15625 76.609375 171.753906 76.609375 176.171875 C 76.609375 178.597656 77.960938 180.859375 80.3125 182.382812 C 80.515625 182.515625 80.617188 182.703125 80.617188 182.945312 L 80.617188 184.578125 L 81.628906 183.570312 C 81.832031 183.367188 82.066406 183.316406 82.335938 183.417969 C 83.71875 183.9375 85.152344 184.191406 86.628906 184.1875 C 92.152344 184.1875 96.648438 180.59375 96.648438 176.171875 C 96.648438 171.753906 92.152344 168.15625 86.628906 168.15625 Z M 86.628906 168.15625 " fill-opacity="1" fill-rule="nonzero"/></g><path fill="#1956b4" d="M 91.304688 181.515625 L 90.636719 181.515625 C 90.453125 181.515625 90.292969 181.449219 90.164062 181.320312 C 90.035156 181.191406 89.96875 181.03125 89.96875 180.847656 C 89.96875 180.664062 90.035156 180.507812 90.164062 180.375 C 90.292969 180.246094 90.453125 180.179688 90.636719 180.179688 L 91.304688 180.179688 C 91.488281 180.179688 91.644531 180.246094 91.777344 180.375 C 91.90625 180.507812 91.972656 180.664062 91.972656 180.847656 C 91.972656 181.03125 91.90625 181.191406 91.777344 181.320312 C 91.644531 181.449219 91.488281 181.515625 91.304688 181.515625 Z M 91.304688 181.515625 " fill-opacity="1" fill-rule="nonzero"/><path fill="#1956b4" d="M 88.632812 181.515625 L 87.964844 181.515625 C 87.78125 181.515625 87.621094 181.449219 87.492188 181.320312 C 87.363281 181.191406 87.296875 181.03125 87.296875 180.847656 C 87.296875 180.664062 87.363281 180.507812 87.492188 180.375 C 87.621094 180.246094 87.78125 180.179688 87.964844 180.179688 L 88.632812 180.179688 C 88.816406 180.179688 88.972656 180.246094 89.105469 180.375 C 89.234375 180.507812 89.300781 180.664062 89.300781 180.847656 C 89.300781 181.03125 89.234375 181.191406 89.105469 181.320312 C 88.972656 181.449219 88.816406 181.515625 88.632812 181.515625 Z M 88.632812 181.515625 " fill-opacity="1" fill-rule="nonzero"/><path fill="#1956b4" d="M 73.9375 198.882812 L 67.257812 198.882812 C 67.074219 198.882812 66.914062 198.816406 66.785156 198.6875 C 66.65625 198.558594 66.589844 198.398438 66.589844 198.214844 C 66.589844 198.03125 66.65625 197.875 66.785156 197.742188 C 66.914062 197.613281 67.074219 197.546875 67.257812 197.546875 L 73.9375 197.546875 C 74.121094 197.546875 74.277344 197.613281 74.410156 197.742188 C 74.539062 197.875 74.605469 198.03125 74.605469 198.214844 C 74.605469 198.398438 74.539062 198.558594 74.410156 198.6875 C 74.277344 198.816406 74.121094 198.882812 73.9375 198.882812 Z M 73.9375 198.882812 " fill-opacity="1" fill-rule="nonzero"/><path fill="#1956b4" d="M 73.269531 201.554688 L 69.261719 201.554688 C 69.078125 201.554688 68.917969 201.488281 68.789062 201.359375 C 68.660156 201.230469 68.59375 201.070312 68.59375 200.886719 C 68.59375 200.703125 68.660156 200.546875 68.789062 200.414062 C 68.917969 200.285156 69.078125 200.21875 69.261719 200.21875 L 73.269531 200.21875 C 73.453125 200.21875 73.609375 200.285156 73.742188 200.414062 C 73.871094 200.546875 73.9375 200.703125 73.9375 200.886719 C 73.9375 201.070312 73.871094 201.230469 73.742188 201.359375 C 73.609375 201.488281 73.453125 201.554688 73.269531 201.554688 Z M 73.269531 201.554688 " fill-opacity="1" fill-rule="nonzero"/><g fill="#1956b4" fill-opacity="1"><g transform="translate(105.166954, 197.249987)"><g><path d="M 16.320312 0 C 18.433594 0 20.160156 -1.726562 20.160156 -3.839844 L 20.160156 -15.359375 C 20.160156 -17.472656 18.433594 -19.199219 16.320312 -19.199219 L 0.960938 -19.199219 L 0.960938 0 Z M 4.800781 -15.359375 L 16.320312 -15.359375 L 16.320312 -3.839844 L 4.800781 -3.839844 Z M 4.800781 -15.359375 "/></g></g></g><g fill="#1956b4" fill-opacity="1"><g transform="translate(126.287001, 197.249987)"><g><path d="M 20.160156 0 L 20.160156 -3.839844 L 12.480469 -3.839844 L 12.480469 -15.359375 L 20.160156 -15.359375 L 20.160156 -19.199219 L 0.960938 -19.199219 L 0.960938 -15.359375 L 8.640625 -15.359375 L 8.640625 -3.839844 L 0.960938 -3.839844 L 0.960938 0 Z M 20.160156 0 "/></g></g></g><g fill="#1956b4" fill-opacity="1"><g transform="translate(147.407048, 197.249987)"><g><path d="M 20.160156 -19.199219 L 4.800781 -19.199219 C 2.6875 -19.199219 0.960938 -17.472656 0.960938 -15.359375 L 0.960938 -11.519531 C 0.960938 -9.40625 2.6875 -7.679688 4.800781 -7.679688 L 16.320312 -7.679688 L 16.320312 -3.839844 L 0.960938 -3.839844 L 0.960938 0 L 16.320312 0 C 18.433594 0 20.160156 -1.726562 20.160156 -3.839844 L 20.160156 -7.679688 C 20.160156 -9.792969 18.433594 -11.519531 16.320312 -11.519531 L 4.800781 -11.519531 L 4.800781 -15.359375 L 20.160156 -15.359375 Z M 20.160156 -19.199219 "/></g></g></g><g fill="#1956b4" fill-opacity="1"><g transform="translate(168.527096, 197.249987)"><g><path d="M 20.160156 -19.199219 L 15.550781 -19.199219 C 15.023438 -19.199219 14.542969 -19.007812 14.160156 -18.625 L 7.054688 -11.519531 L 4.800781 -11.519531 L 4.800781 -19.199219 L 0.960938 -19.199219 L 0.960938 0 L 4.800781 0 L 4.800781 -7.679688 L 7.054688 -7.679688 L 14.160156 -0.574219 C 14.542969 -0.191406 15.023438 0 15.550781 0 L 20.160156 0 L 20.160156 -3.839844 L 16.320312 -3.839844 L 10.558594 -9.601562 L 16.320312 -15.359375 L 20.160156 -15.359375 Z M 20.160156 -19.199219 "/></g></g></g><g fill="#1956b4" fill-opacity="1"><g transform="translate(189.647143, 197.249987)"><g><path d="M 16.320312 0 C 18.433594 0 20.160156 -1.726562 20.160156 -3.839844 L 20.160156 -19.199219 L 16.320312 -19.199219 L 16.320312 -3.839844 L 4.800781 -3.839844 L 4.800781 -19.199219 L 0.960938 -19.199219 L 0.960938 -3.839844 C 0.960938 -1.726562 2.6875 0 4.800781 0 Z M 16.320312 0 "/></g></g></g><g fill="#1956b4" fill-opacity="1"><g transform="translate(210.76719, 197.249987)"><g><path d="M 20.160156 -19.199219 L 4.800781 -19.199219 C 2.6875 -19.199219 0.960938 -17.472656 0.960938 -15.359375 L 0.960938 -11.519531 C 0.960938 -9.40625 2.6875 -7.679688 4.800781 -7.679688 L 16.320312 -7.679688 L 16.320312 -3.839844 L 0.960938 -3.839844 L 0.960938 0 L 16.320312 0 C 18.433594 0 20.160156 -1.726562 20.160156 -3.839844 L 20.160156 -7.679688 C 20.160156 -9.792969 18.433594 -11.519531 16.320312 -11.519531 L 4.800781 -11.519531 L 4.800781 -15.359375 L 20.160156 -15.359375 Z M 20.160156 -19.199219 "/></g></g></g><g fill="#1956b4" fill-opacity="1"><g transform="translate(231.887238, 197.249987)"><g><path d="M 20.160156 0 L 20.160156 -3.839844 L 12.480469 -3.839844 L 12.480469 -15.359375 L 20.160156 -15.359375 L 20.160156 -19.199219 L 0.960938 -19.199219 L 0.960938 -15.359375 L 8.640625 -15.359375 L 8.640625 -3.839844 L 0.960938 -3.839844 L 0.960938 0 Z M 20.160156 0 "/></g></g></g><g fill="#1956b4" fill-opacity="1"><g transform="translate(253.007285, 197.249987)"><g><path d="M 4.800781 -19.199219 C 2.6875 -19.199219 0.960938 -17.472656 0.960938 -15.359375 L 0.960938 0 L 4.800781 0 L 4.800781 -7.679688 L 16.320312 -7.679688 L 16.320312 0 L 20.160156 0 L 20.160156 -15.359375 C 20.160156 -17.472656 18.433594 -19.199219 16.320312 -19.199219 Z M 4.800781 -15.359375 L 16.320312 -15.359375 L 16.320312 -11.519531 L 4.800781 -11.519531 Z M 4.800781 -15.359375 "/></g></g></g><g fill="#1956b4" fill-opacity="1"><g transform="translate(274.127332, 197.249987)"><g><path d="M 20.160156 -3.839844 L 7.511719 -3.839844 L 19.585938 -15.910156 C 19.945312 -16.273438 20.160156 -16.753906 20.160156 -17.28125 C 20.160156 -18.335938 19.296875 -19.199219 18.238281 -19.199219 L 0.960938 -19.199219 L 0.960938 -15.359375 L 13.609375 -15.359375 L 1.535156 -3.289062 C 1.175781 -2.929688 0.960938 -2.449219 0.960938 -1.921875 C 0.960938 -0.863281 1.824219 0 2.878906 0 L 20.160156 0 Z M 20.160156 -3.839844 "/></g></g></g><g fill="#1956b4" fill-opacity="1"><g transform="translate(295.24738, 197.249987)"><g><path d="M 4.800781 -19.199219 C 2.6875 -19.199219 0.960938 -17.472656 0.960938 -15.359375 L 0.960938 0 L 4.800781 0 L 4.800781 -7.679688 L 16.320312 -7.679688 L 16.320312 0 L 20.160156 0 L 20.160156 -15.359375 C 20.160156 -17.472656 18.433594 -19.199219 16.320312 -19.199219 Z M 4.800781 -15.359375 L 16.320312 -15.359375 L 16.320312 -11.519531 L 4.800781 -11.519531 Z M 4.800781 -15.359375 "/></g></g></g></svg>